<?xml version="1.0" encoding="UTF-8"?>
<svg width="1200pt" height="1200pt" version="1.1" viewBox="0 0 1200 1200" xmlns="http://www.w3.org/2000/svg" fill="#ecfdf5">
 <g>
  <path d="m362.28 866.88v2.2812c-5.6328 28.133 1.6172 57.309 19.754 79.539 18.141 22.227 45.273 35.176 73.965 35.301h288c28.754-0.015625 55.988-12.918 74.207-35.164 18.223-22.242 25.516-51.48 19.871-79.676v-2.2812c-6.5547-32.453-19.691-63.219-38.598-90.398-18.902-27.18-43.176-50.199-71.32-67.641 27.953-32.723 42.281-74.926 40.031-117.9s-20.91-83.449-52.125-113.07-72.609-46.141-115.64-46.141c-43.039 0-84.434 16.516-115.65 46.141-31.215 29.625-49.875 70.098-52.125 113.07s12.078 85.18 40.031 117.9c-28.234 17.391-52.598 40.391-71.586 67.574-18.988 27.184-32.199 57.973-38.812 90.465zm237.72-338.88c19.094 0 37.41 7.5859 50.91 21.09 13.504 13.5 21.09 31.816 21.09 50.91s-7.5859 37.41-21.09 50.91c-13.5 13.504-31.816 21.09-50.91 21.09s-37.41-7.5859-50.91-21.09c-13.504-13.5-21.09-31.816-21.09-50.91s7.5859-37.41 21.09-50.91c13.5-13.504 31.816-21.09 50.91-21.09zm-144 357.72c8.9688-44.539 38.105-82.391 78.871-102.46 40.766-20.062 88.535-20.062 129.3 0 40.766 20.066 69.906 57.918 78.871 102.46l0.96094 2.2812h-288z"/>
  <path d="m914.52 394.32-225.84-150.6c-16.828-11.457-35.684-19.602-55.559-24-41.422-9.0586-84.746-0.87109-120 22.68l-228 152.04v0.003906c-43.246 28.996-69.172 77.652-69.121 129.72v207.84c0 17.148 9.1484 32.996 24 41.57 14.852 8.5742 33.148 8.5742 48 0 14.852-8.5742 24-24.422 24-41.57v-207.84c0.011719-20.066 10.055-38.801 26.762-49.922l228-152.04c9.8594-6.5781 21.445-10.09 33.297-10.09 11.855 0 23.441 3.5117 33.301 10.09l228 152.04c16.66 11.148 26.656 29.875 26.641 49.922v207.84c0 17.148 9.1484 32.996 24 41.57 14.852 8.5742 33.148 8.5742 48 0 14.852-8.5742 24-24.422 24-41.57v-207.84c0.011719-52.176-26.062-100.9-69.48-129.84z"/>
 </g>
</svg>
