<?xml version="1.0" encoding="UTF-8"?>
<svg width="1200pt" height="1200pt" version="1.1" viewBox="0 0 1200 1200" xmlns="http://www.w3.org/2000/svg">
 <g>
  <path d="m768 600c0 19.883-16.117 36-36 36s-36-16.117-36-36 16.117-36 36-36 36 16.117 36 36"/>
  <path d="m815.04 370.32c-22.426-29.129-57.078-46.23-93.84-46.32h-361.2c-31.824 0-62.348 12.645-84.852 35.148-22.504 22.504-35.148 53.027-35.148 84.852v312c0 31.824 12.645 62.348 35.148 84.852 22.504 22.504 53.027 35.148 84.852 35.148h361.2c36.785-0.11719 71.438-17.266 93.84-46.441l120.96-157.56c15.824-20.668 24.398-45.973 24.398-72s-8.5742-51.332-24.398-72zm63.48 257.64-120.72 157.92c-8.7227 11.398-22.25 18.094-36.602 18.121h-361.2c-12.73 0-24.938-5.0586-33.941-14.059-9-9.0039-14.059-21.211-14.059-33.941v-312c0-12.73 5.0586-24.938 14.059-33.941 9.0039-9 21.211-14.059 33.941-14.059h361.2c14.395-0.011719 27.973 6.6875 36.723 18.121l120.6 157.8c6.1719 8.0586 9.5117 17.926 9.5117 28.078s-3.3398 20.02-9.5117 28.078z"/>
 </g>
</svg>
