<?xml version="1.0" encoding="UTF-8"?>
<svg width="1200pt" height="1200pt" version="1.1" viewBox="0 0 1200 1200" xmlns="http://www.w3.org/2000/svg">
 <path d="m826.2 636-90.84-140.88c24.656-33.539 35.98-75.035 31.785-116.45-4.1953-41.41-23.617-79.793-54.496-107.7-30.883-27.906-71.023-43.359-112.65-43.359s-81.766 15.453-112.65 43.359c-30.879 27.91-50.301 66.293-54.496 107.7-4.1953 41.41 7.1289 82.906 31.785 116.45l-90.84 140.88c-40.352 2.4336-78.473 19.336-107.37 47.605-28.895 28.266-46.629 66.008-49.949 106.29-3.3203 40.289 7.9961 80.422 31.875 113.04s58.719 55.527 98.129 64.535c39.406 9.0078 80.738 3.5 116.42-15.504 35.676-19.008 63.305-50.238 77.812-87.969h118.56c14.508 37.73 42.137 68.961 77.812 87.969 35.68 19.004 77.012 24.512 116.42 15.504 39.41-9.0078 74.25-31.918 98.129-64.535s35.195-72.75 31.875-113.04c-3.3203-40.285-21.055-78.027-49.949-106.29-28.895-28.27-67.016-45.172-107.37-47.605zm-174.24 132h-103.92c-4.8711-21.992-14.117-42.781-27.188-61.129-13.07-18.348-29.699-33.879-48.891-45.672l69.48-108c37.711 14.402 79.406 14.402 117.12 0l69.48 108c-19.191 11.793-35.82 27.324-48.891 45.672-13.07 18.348-22.316 39.137-27.188 61.129zm-51.961-444c19.094 0 37.41 7.5859 50.91 21.09 13.504 13.5 21.09 31.816 21.09 50.91s-7.5859 37.41-21.09 50.91c-13.5 13.504-31.816 21.09-50.91 21.09s-37.41-7.5859-50.91-21.09c-13.504-13.5-21.09-31.816-21.09-50.91s7.5859-37.41 21.09-50.91c13.5-13.504 31.816-21.09 50.91-21.09zm-216 552c-19.094 0-37.41-7.5859-50.91-21.09-13.504-13.5-21.09-31.816-21.09-50.91s7.5859-37.41 21.09-50.91c13.5-13.504 31.816-21.09 50.91-21.09s37.41 7.5859 50.91 21.09c13.504 13.5 21.09 31.816 21.09 50.91s-7.5859 37.41-21.09 50.91c-13.5 13.504-31.816 21.09-50.91 21.09zm432 0c-19.094 0-37.41-7.5859-50.91-21.09-13.504-13.5-21.09-31.816-21.09-50.91s7.5859-37.41 21.09-50.91c13.5-13.504 31.816-21.09 50.91-21.09s37.41 7.5859 50.91 21.09c13.504 13.5 21.09 31.816 21.09 50.91s-7.5859 37.41-21.09 50.91c-13.5 13.504-31.816 21.09-50.91 21.09z"/>
</svg>
