<?xml version="1.0" encoding="UTF-8"?>
<svg width="1200pt" height="1200pt" version="1.1" viewBox="0 0 1200 1200" xmlns="http://www.w3.org/2000/svg">
 <path d="m216 768c0 57.285 22.758 112.23 63.266 152.73s95.449 63.266 152.73 63.266h432c31.824 0 62.348-12.645 84.852-35.148 22.504-22.504 35.148-53.027 35.148-84.852v-144c0-31.824-12.645-62.348-35.148-84.852-22.504-22.504-53.027-35.148-84.852-35.148h-264v-264c0-31.824-12.645-62.348-35.148-84.852-22.504-22.504-53.027-35.148-84.852-35.148h-144c-31.824 0-62.348 12.645-84.852 35.148-22.504 22.504-35.148 53.027-35.148 84.852zm96-432c0-6.3633 2.5273-12.469 7.0312-16.969 4.5-4.5039 10.605-7.0312 16.969-7.0312h144c6.3633 0 12.469 2.5273 16.969 7.0312 4.5039 4.5 7.0312 10.605 7.0312 16.969v72h-45.961c-12.219-0.24219-24.098 4.0508-33.336 12.051-9.2422 8-15.191 19.141-16.703 31.27-1.3242 13.52 3.1406 26.969 12.289 37.008 9.1523 10.043 22.125 15.738 35.711 15.672h48v96h-45.961c-12.219-0.24219-24.098 4.0508-33.336 12.051-9.2422 8-15.191 19.141-16.703 31.27-1.3242 13.52 3.1406 26.969 12.289 37.008 9.1523 10.043 22.125 15.738 35.711 15.672h48v45.961c-0.24219 12.219 4.0508 24.098 12.051 33.336 8 9.2422 19.141 15.191 31.27 16.703 13.52 1.3242 26.969-3.1406 37.008-12.289 10.043-9.1523 15.738-22.125 15.672-35.711v-48h96v45.961c-0.24219 12.219 4.0508 24.098 12.051 33.336 8 9.2422 19.141 15.191 31.27 16.703 13.52 1.3242 26.969-3.1406 37.008-12.289 10.043-9.1523 15.738-22.125 15.672-35.711v-48h72c6.3633 0 12.469 2.5273 16.969 7.0312 4.5039 4.5 7.0312 10.605 7.0312 16.969v144c0 6.3633-2.5273 12.469-7.0312 16.969-4.5 4.5039-10.605 7.0312-16.969 7.0312h-432c-31.824 0-62.348-12.645-84.852-35.148-22.504-22.504-35.148-53.027-35.148-84.852z"/>
</svg>
