<?xml version="1.0" encoding="UTF-8"?>
<svg width="1200pt" height="1200pt" version="1.1" viewBox="0 0 1200 1200" xmlns="http://www.w3.org/2000/svg" fill="#ecfdf5">
 <g>
  <path d="m600 780c12.73 0 24.938-5.0586 33.941-14.059 9-9.0039 14.059-21.211 14.059-33.941v-108c0-17.148-9.1484-32.996-24-41.57-14.852-8.5742-33.148-8.5742-48 0-14.852 8.5742-24 24.422-24 41.57v108c0 12.73 5.0586 24.938 14.059 33.941 9.0039 9 21.211 14.059 33.941 14.059z"/>
  <path d="m648 468c0 26.508-21.492 48-48 48s-48-21.492-48-48 21.492-48 48-48 48 21.492 48 48"/>
  <path d="m312 984c8.9297-0.007812 17.816-1.2578 26.398-3.7188l105.6-30c49.008 22.215 102.19 33.711 156 33.719 12 0 24 0 36.719-1.8008 90.062-9.2812 174.02-49.824 237.29-114.59s101.85-149.64 109.03-239.89c4.0039-52.68-2.9961-105.62-20.559-155.45-17.559-49.832-45.293-95.461-81.441-133.99-35.988-38.523-79.496-69.254-127.84-90.285-48.34-21.035-100.48-31.922-153.2-31.996-9.2383 0-18.48 0-27.719 0.96094-90.254 7.1797-175.13 45.758-239.89 109.03s-105.3 147.23-114.59 237.29c-6.2383 65.918 4.7578 132.33 31.918 192.72l-30 105.12c-8.4648 29.027-2.7617 60.348 15.398 84.527 18.156 24.18 46.645 38.391 76.883 38.352zm29.641-257.64c-23.645-47.664-33.457-101-28.32-153.96 6.7617-67.602 37.102-130.67 85.699-178.15 48.598-47.477 112.36-76.34 180.1-81.527 6.957-0.71875 13.918-0.71875 20.879-0.71875 74-0.015625 145.17 28.457 198.74 79.508 53.574 51.047 85.438 120.76 88.988 194.68 3.5508 73.914-21.488 146.36-69.922 202.31-48.434 55.949-116.54 91.105-190.2 98.184-9.2812 0.87891-18.48 1.3203-27.602 1.3203-43.84-0.019531-87.082-10.164-126.36-29.641-8.0781-4.0938-16.988-6.2695-26.039-6.3594h-1.8008c-5.2344-0.003906-10.445 0.72266-15.48 2.1602l-118.32 33.84 33.84-118.44c1.4375-5.0312 2.1641-10.242 2.1602-15.48v-1.6797c-0.089844-9.0508-2.2656-17.961-6.3594-26.039z"/>
 </g>
</svg>
