<?xml version="1.0" encoding="UTF-8"?>
<svg width="1200pt" height="1200pt" version="1.1" viewBox="0 0 1200 1200" xmlns="http://www.w3.org/2000/svg">
 <path d="m1002 1002c222-222 222-582 0-804s-582-222-804 0-222 582 0 804 582 222 804 0zm-712.8-712.8c171.6-171.6 451.2-171.6 622.8 0 171.6 171.6 171.6 451.2 0 622.8s-451.2 171.6-622.8 0c-172.8-172.8-172.8-451.2 0-622.8zm241.2 70.801c-1.1992-12 1.1992-24 6-34.801 14.398-31.199 48-48 81.602-39.602 32.398 8.3984 54 39.602 51.602 74.398-1.1992 22.801-2.3984 44.398-3.6016 67.199-4.8008 84-9.6016 168-13.199 250.8-1.1992 27.602-24 49.199-51.602 49.199-28.801 0-50.398-21.602-51.602-51.602-1.1992-16.801-1.1992-33.602-2.3984-50.398-3.6016-54-6-108-9.6016-163.2-2.3984-32.395-4.7969-67.195-7.1992-102zm0 487.2c0-38.398 31.199-70.801 69.602-70.801 38.398 0 69.602 31.199 70.801 69.602 0 38.398-31.199 69.602-69.602 69.602-38.398 1.1992-70.801-30-70.801-68.402z"/>
</svg>
