<svg width="1600" height="1600" viewBox="0 0 1600 1600" fill="none" xmlns="http://www.w3.org/2000/svg">
<g clip-path="url(#clip0_1_2)">
<path fill-rule="evenodd" clip-rule="evenodd" d="M800 1600C1241.84 1600 1600 1241.81 1600 800C1600 358.185 1241.81 0 800 0C358.185 0 0 358.162 0 800C0 1241.84 358.162 1600 800 1600ZM1126.03 399.988H830.088C747.467 399.988 647.855 520.396 597.736 600.665C581.857 626.099 516.715 701.599 474.801 799.76C470.39 810.089 389.202 799.475 311.122 733.651C348.246 819.747 448.291 856.972 448.291 856.972C448.291 856.972 428.635 931.441 435.5 1010.24C441.5 1079.13 472.349 1150.25 506.415 1178.54C676.196 1319.54 867.493 1157.93 867.493 1157.93L830.094 1129.11C830.094 1129.11 801.966 1162.04 711.69 1157.93C666.276 1155.86 624.273 1147.14 597.742 1117.11C571.644 1087.57 560.627 1036.9 563.245 1012.25C582.047 835.09 762.082 856.97 774.277 856.97C796.506 856.97 731.519 944.792 731.519 944.792C731.519 944.792 823.062 984.407 878.75 984.407C888.04 984.407 913.578 1002.97 917.05 1012.25C940.473 1074.89 963.906 1137.54 987.339 1200.17C990.813 1209.44 1018.66 1227 1046.09 1224.96C1063.37 1223.69 1153.68 1212.88 1165.83 1208.01C1200.02 1194.32 1200.02 1153.82 1200.02 1153.82V474.127C1200.02 474.127 1200.02 399.977 1126.03 399.977L1126.03 399.988ZM823.948 679.836C842.823 679.836 858.132 664.178 858.132 644.853C858.132 625.537 842.822 609.879 823.948 609.879C805.064 609.879 789.755 625.538 789.755 644.853C789.755 664.178 805.064 679.836 823.948 679.836Z" fill="#059669"/>
</g>
<defs>
<clipPath id="clip0_1_2">
<rect width="1600" height="1600" fill="white"/>
</clipPath>
</defs>
</svg>
