<?xml version="1.0" encoding="UTF-8"?>
<svg width="1200pt" height="1200pt" version="1.1" viewBox="0 0 1200 1200" xmlns="http://www.w3.org/2000/svg" fill="#ecfdf5">
 <g>
  <path d="m528 588c0 26.508-21.492 48-48 48s-48-21.492-48-48 21.492-48 48-48 48 21.492 48 48"/>
  <path d="m768 588c0 26.508-21.492 48-48 48s-48-21.492-48-48 21.492-48 48-48 48 21.492 48 48"/>
  <path d="m624 684h-48c-12.738-0.011719-24.957 5.043-33.969 14.047-9.0078 9.0039-14.07 21.219-14.07 33.957 0.003906 12.738 5.0664 24.953 14.078 33.957l24 24c9.0039 9.0117 21.223 14.078 33.961 14.078s24.957-5.0664 33.961-14.078l24-24c9.0117-9.0039 14.074-21.219 14.078-33.957 0-12.738-5.0625-24.953-14.07-33.957-9.0117-9.0039-21.23-14.059-33.969-14.047z"/>
  <path d="m984 408c-0.12109-34.074-10.602-67.305-30.047-95.281-19.449-27.98-46.941-49.383-78.836-61.375-31.895-11.988-66.68-13.996-99.742-5.7578-33.062 8.2422-62.836 26.34-85.375 51.895-59.336-12.641-120.66-12.641-180 0-28.227-31.113-67.086-50.523-108.91-54.402-41.832-3.8789-83.598 8.0547-117.06 33.449-33.469 25.391-56.207 62.402-63.73 103.73-7.5273 41.332 0.70312 83.98 23.066 119.54-18.023 38.922-27.359 81.305-27.359 124.2 0 61.441 43.68 118.32 86.039 173.4 14.52 18.84 29.52 38.398 42 57.238 66.84 100.32 140.88 105.36 255.96 105.36s189.12-5.0391 255.96-105.36c12-18.84 27.602-38.398 42-57.238 42.359-55.082 86.039-111.96 86.039-173.4 0-42.895-9.3359-85.277-27.359-124.2 17.938-27.25 27.453-59.18 27.359-91.801zm-162.12 330.96c-15.48 20.16-31.441 40.922-45.84 62.398-38.16 57.242-65.52 62.641-176.04 62.641s-137.88-5.3984-176.04-62.641c-14.281-21.48-30.359-42.359-45.84-62.398-30.961-40.441-66.121-86.16-66.121-114.96 0.14453-37.25 10.434-73.758 29.762-105.6 5.5039-9.2695 7.7305-20.121 6.3125-30.812-1.4141-10.688-6.3867-20.59-14.113-28.105-15.785-14.484-24.301-35.242-23.234-56.637 1.0664-21.395 11.605-41.203 28.75-54.047 17.145-12.84 39.117-17.379 59.949-12.383 20.832 4.9922 38.355 19.004 47.812 38.227 5.1211 9.8984 13.527 17.703 23.773 22.082 10.246 4.3789 21.695 5.0586 32.387 1.918 63.031-18.797 130.17-18.797 193.2 0 10.691 3.1406 22.141 2.4609 32.387-1.918 10.246-4.3789 18.652-12.184 23.773-22.082 9.457-19.223 26.98-33.234 47.812-38.227 20.832-4.9961 42.805-0.45703 59.949 12.383 17.145 12.844 27.684 32.652 28.75 54.047 1.0664 21.395-7.4492 42.152-23.234 56.637-7.7266 7.5156-12.699 17.418-14.113 28.105-1.418 10.691 0.80859 21.543 6.3125 30.812 19.332 31.844 29.621 68.352 29.762 105.6 0 28.801-35.16 74.52-66.121 114.96z"/>
 </g>
</svg>
